<svg version="1.2" xmlns="http://www.w3.org/2000/svg" viewBox="0 0 564 564" width="564" height="564">
	<title>cctv-svgrepo-com-svg</title>
	<style>
		.s0 { fill: rgb(10, 10, 10) } 
	</style>
	<path id="Layer" fill-rule="evenodd" class="s0" d="m538 107.9v102.4c0 7.2-2.8 13.9-7.9 19l-28.8 28.8v5.6c0 120.9-98.4 219.3-219.3 219.3-120.9 0-219.3-98.4-219.3-219.3v-5.6l-28.8-28.8c-5.1-5.1-7.9-11.8-7.9-19v-102.4c0-14.8 12.1-26.9 26.9-26.9h458.2c14.8 0 26.9 12.1 26.9 26.9zm-17.2 0c0-5.4-4.3-9.7-9.7-9.7h-458.2c-5.4 0-9.7 4.3-9.7 9.7v92.2h339.6c4.7 0 8.6 3.8 8.6 8.6 0 4.7-3.9 8.6-8.6 8.6h-336.6l28.6 28.6h33.1c4.7 0 8.6 3.9 8.6 8.6 0 4.8-3.9 8.6-8.6 8.6h-28.1v0.6c0 111.4 90.7 202.1 202.2 202.1 111.5 0 202.2-90.7 202.2-202.1v-0.6h-339.6c-4.8 0-8.6-3.8-8.6-8.6 0-4.7 3.8-8.6 8.6-8.6h344.6l28.6-28.6h-43.4c-4.7 0-8.6-3.9-8.6-8.6 0-4.8 3.9-8.6 8.6-8.6h46.4zm-74.4 100.8c0 4.7-3.9 8.6-8.6 8.6h-18.3c-4.8 0-8.6-3.9-8.6-8.6 0-4.7 3.8-8.6 8.6-8.6h18.3c4.7 0 8.6 3.9 8.6 8.6zm-91.7 155.8c0 40.1-32.6 72.7-72.7 72.7-40.1 0-72.7-32.6-72.7-72.7 0-40.1 32.6-72.8 72.7-72.8 40.1 0 72.7 32.7 72.7 72.8zm-17.1 0c0-30.7-25-55.6-55.6-55.6-30.6 0-55.6 24.9-55.6 55.6 0 30.6 25 55.5 55.6 55.5 30.6 0 55.6-24.9 55.6-55.5zm-19.5 0c0 19.9-16.2 36.1-36.1 36.1-19.9 0-36.1-16.2-36.1-36.1 0-19.9 16.2-36.1 36.1-36.1 4.7 0 8.6 3.8 8.6 8.6 0 4.7-3.9 8.6-8.6 8.6-10.4 0-18.9 8.5-18.9 18.9 0 10.4 8.5 18.9 18.9 18.9 10.4 0 18.9-8.5 18.9-18.9 0-4.8 3.8-8.6 8.6-8.6 4.7 0 8.6 3.8 8.6 8.6z"/>
</svg>