<svg version="1.2" xmlns="http://www.w3.org/2000/svg" viewBox="0 0 564 564" width="564" height="564">
	<title>projector-svgrepo-com_1-svg</title>
	<style>
		.s0 { fill: rgb(10, 10, 10) } 
	</style>
	<path id="Layer" fill-rule="evenodd" class="s0" d="m538 241v95.3c0 23.2-18.7 42.1-41.7 42.1h-15.7v16.7c0 4.2-3.5 7.6-7.7 7.6h-77c-4.2 0-7.6-3.4-7.6-7.6v-16.7h-227.5v16.7c0 4.2-3.4 7.6-7.6 7.6h-77c-4.2 0-7.6-3.4-7.6-7.6v-16.7h-0.9c-23 0-41.7-18.9-41.7-42.1v-95.3c0-23.2 18.7-42.1 41.7-42.1h18.8v-7.3c0-12 9.8-21.8 21.8-21.8h61.2c12 0 21.8 9.8 21.8 21.8v7.3h13.6c4.2 0 7.7 3.4 7.7 7.6 0 4.2-3.5 7.6-7.7 7.6h-137.2c-14.6 0-26.5 12.1-26.5 26.9v10.7h187.3c4.2 0 7.6 3.4 7.6 7.6 0 4.2-3.4 7.6-7.6 7.6h-187.3v9.8h187.3c4.2 0 7.6 3.4 7.6 7.6 0 4.2-3.4 7.6-7.6 7.6h-187.3v9.7h187.3c4.2 0 7.6 3.4 7.6 7.6 0 4.2-3.4 7.6-7.6 7.6h-187.3v19.5c0 14.8 11.9 26.9 26.5 26.9h428.6c14.6 0 26.5-12.1 26.5-26.9v-95.3c0-14.8-11.9-26.9-26.5-26.9h-28.2c4.8 10.9 7.5 23 7.5 35.7 0 48.8-39.7 88.5-88.5 88.5-48.8 0-88.5-39.7-88.5-88.5 0-12.7 2.7-24.8 7.5-35.7h-32.2c-4.2 0-7.6-3.4-7.6-7.6 0-4.2 3.4-7.6 7.6-7.6h39.5q0.7 0 1.3 0.1c16-22.8 42.5-37.7 72.4-37.7 29.9 0 56.3 14.9 72.4 37.6h36.8c23 0 41.7 18.9 41.7 42.1zm-77.6 8.8c0-40.4-32.9-73.3-73.3-73.3-40.4 0-73.3 32.9-73.3 73.3 0 40.4 32.9 73.3 73.3 73.3 40.4 0 73.3-32.9 73.3-73.3zm-358.7-50.9h74.4v-7.3c0-3.6-3-6.6-6.6-6.6h-61.2c-3.7 0-6.6 3-6.6 6.6zm43.9 179.4h-61.8v9.2h61.8zm319.7 0h-61.8v9.1h61.8zm-19.4-128.6c0 32.4-26.4 58.8-58.8 58.8-32.4 0-58.8-26.4-58.8-58.8 0-32.4 26.4-58.8 58.8-58.8 32.4 0 58.8 26.4 58.8 58.8zm-15.2 0c0-24-19.6-43.6-43.6-43.6-24 0-43.6 19.6-43.6 43.6 0 24 19.6 43.6 43.6 43.6 24 0 43.6-19.6 43.6-43.6zm-5.9 0c0 20.8-16.9 37.7-37.7 37.7-20.8 0-37.7-16.9-37.7-37.7 0-20.8 16.9-37.7 37.7-37.7 20.8 0 37.7 16.9 37.7 37.7zm-15.2 0c0-12.4-10.1-22.5-22.5-22.5-12.4 0-22.5 10.1-22.5 22.5 0 12.4 10.1 22.5 22.5 22.5 12.4 0 22.5-10.1 22.5-22.5z"/>
</svg>