<svg version="1.2" xmlns="http://www.w3.org/2000/svg" viewBox="0 0 564 564" width="564" height="564">
	<title>server-svgrepo-com_1-svg</title>
	<style>
		.s0 { fill: rgb(10, 10, 10) } 
	</style>
	<g id="Server">
		<g id="Layer">
			<path id="Layer" fill-rule="evenodd" class="s0" d="m480.3 258.5h-396.6c-4.6 0-9.2-0.9-13.5-2.7-4.2-1.8-8.1-4.4-11.4-7.6-3.3-3.3-5.9-7.2-7.6-11.5-1.8-4.2-2.7-8.8-2.7-13.4v-92.5c0-4.7 0.9-9.2 2.7-13.5 1.7-4.3 4.3-8.2 7.6-11.4 3.3-3.3 7.2-5.9 11.4-7.7 4.3-1.8 8.9-2.7 13.5-2.7h396.6c4.6 0 9.2 0.9 13.5 2.7 4.2 1.8 8.1 4.4 11.4 7.7 3.3 3.2 5.9 7.1 7.6 11.4 1.8 4.3 2.7 8.8 2.7 13.5v92.3c0 4.7-0.9 9.3-2.6 13.6-1.8 4.2-4.4 8.1-7.7 11.4-3.2 3.3-7.1 5.9-11.4 7.7-4.3 1.8-8.9 2.7-13.5 2.7zm-396.6-139.5c-1.5 0-3 0.3-4.5 0.9-1.4 0.6-2.7 1.5-3.8 2.6-1.1 1.1-1.9 2.4-2.5 3.8-0.6 1.4-0.9 2.9-0.9 4.5v92.3c0 1.6 0.3 3.1 0.9 4.5 0.6 1.5 1.4 2.7 2.5 3.8 1.1 1.1 2.4 2 3.8 2.6 1.5 0.6 3 0.9 4.5 0.9h396.6c1.5 0 3-0.3 4.5-0.9 1.4-0.6 2.7-1.5 3.8-2.6 1.1-1.1 1.9-2.3 2.5-3.8 0.6-1.4 0.9-2.9 0.9-4.5v-92.3c0-1.6-0.3-3.1-0.9-4.5-0.6-1.4-1.4-2.7-2.5-3.8-1.1-1.1-2.4-2-3.8-2.6-1.5-0.6-3-0.9-4.5-0.9z"/>
			<path id="Layer" fill-rule="evenodd" class="s0" d="m480.3 468.5h-396.6c-4.6 0-9.2-0.9-13.5-2.7-4.2-1.8-8.1-4.4-11.4-7.7-3.3-3.2-5.9-7.1-7.6-11.4-1.8-4.3-2.7-8.8-2.7-13.5v-92.3c0-4.7 0.9-9.2 2.7-13.5 1.7-4.3 4.3-8.2 7.6-11.5 3.3-3.2 7.2-5.8 11.4-7.6 4.3-1.8 8.9-2.7 13.5-2.7h396.6c4.6 0 9.2 0.9 13.5 2.7 4.2 1.8 8.1 4.4 11.4 7.6 3.3 3.3 5.9 7.2 7.6 11.5 1.8 4.3 2.7 8.8 2.7 13.5v92.3c0 4.7-0.9 9.2-2.7 13.5-1.7 4.3-4.3 8.2-7.6 11.4-3.3 3.3-7.2 5.9-11.4 7.7-4.3 1.8-8.9 2.7-13.5 2.7zm-396.6-139.4c-1.5 0-3 0.3-4.5 0.9-1.4 0.6-2.7 1.5-3.8 2.6-1.1 1.1-1.9 2.3-2.5 3.8-0.6 1.4-0.9 2.9-0.9 4.5v92.3c0 1.6 0.3 3.1 0.9 4.5 0.6 1.4 1.4 2.7 2.5 3.8 1.1 1.1 2.4 2 3.8 2.6 1.5 0.6 3 0.9 4.5 0.9h396.6c1.5 0 3-0.3 4.5-0.9 1.4-0.6 2.7-1.5 3.8-2.6 1.1-1.1 1.9-2.4 2.5-3.8 0.6-1.4 0.9-2.9 0.9-4.5v-92.3c0-1.6-0.3-3.1-0.9-4.5-0.6-1.5-1.4-2.7-2.5-3.8-1.1-1.1-2.4-2-3.8-2.6-1.5-0.6-3-0.9-4.5-0.9z"/>
			<path id="Layer" class="s0" d="m130.7 188.7c-6.5 0-11.7-5.2-11.7-11.7 0-6.5 5.2-11.8 11.7-11.8 6.5 0 11.8 5.3 11.8 11.8 0 6.5-5.3 11.7-11.8 11.7z"/>
			<path id="Layer" class="s0" d="m177.7 188.7c-6.5 0-11.7-5.2-11.7-11.7 0-6.5 5.2-11.8 11.7-11.8 6.5 0 11.8 5.3 11.8 11.8 0 6.5-5.3 11.7-11.8 11.7z"/>
			<path id="Layer" class="s0" d="m316.1 188.7c-3.1 0-6.1-1.2-8.3-3.4-2.2-2.2-3.4-5.2-3.4-8.3 0-3.2 1.2-6.1 3.4-8.4 2.2-2.2 5.2-3.4 8.3-3.4h117.5c3.1 0 6.1 1.2 8.3 3.4 2.2 2.3 3.5 5.2 3.5 8.4 0 3.1-1.3 6.1-3.5 8.3-2.2 2.2-5.2 3.4-8.3 3.4z"/>
			<path id="Layer" class="s0" d="m130.7 398.8c-6.5 0-11.7-5.3-11.7-11.8 0-6.5 5.2-11.7 11.7-11.7 6.5 0 11.8 5.2 11.8 11.7 0 6.5-5.3 11.8-11.8 11.8z"/>
			<path id="Layer" class="s0" d="m177.7 398.8c-6.5 0-11.7-5.3-11.7-11.8 0-6.5 5.2-11.7 11.7-11.7 6.5 0 11.8 5.2 11.8 11.7 0 6.5-5.3 11.8-11.8 11.8z"/>
			<path id="Layer" class="s0" d="m316.1 398.8c-3.1 0-6.1-1.2-8.3-3.4-2.2-2.3-3.4-5.2-3.4-8.4 0-3.1 1.2-6.1 3.4-8.3 2.2-2.2 5.2-3.4 8.3-3.4h117.5c3.1 0 6.1 1.2 8.3 3.4 2.2 2.2 3.5 5.2 3.5 8.3 0 3.2-1.3 6.1-3.5 8.4-2.2 2.2-5.2 3.4-8.3 3.4z"/>
		</g>
	</g>
</svg>